<svg xmlns="http://www.w3.org/2000/svg" viewBox="0 0 64 64" role="img" aria-hidden="true">
  <g transform="rotate(-28 32 32)">
    <path
      fill="#4A7F08"
      fill-rule="evenodd"
      d="M44.5 8.2
         C34.8 5.1 24.6 8.8 18.2 16.4
         C11.2 24.8 9.1 35.8 12.8 44.6
         C14.2 47.8 16.4 50.2 18.8 51.6
         L21.4 53.2
         C17.8 48.6 17.2 40.2 20.4 32.4
         C24.4 22.8 32.2 15.6 41.8 12.8
         C43.6 12.2 44.8 10.4 44.5 8.2
         M34.8 22.4
         a4.2 2.6 0 1 1 8.4 0
         a4.2 2.6 0 1 1 -8.4 0
         M26.8 30.8
         a3.4 2.1 0 1 1 6.8 0
         a3.4 2.1 0 1 1 -6.8 0
         M37.2 33.6
         a2.8 1.7 0 1 1 5.6 0
         a2.8 1.7 0 1 1 -5.6 0
         Z"
    />
    <path fill="#4A7F08" d="M21.4 53.2 L23.6 58.8 L25.2 54.4 Z" />
  </g>
</svg>
